{
	"asset":{
		"generator":"Khronos glTF Blender I/O v4.4.56",
		"version":"2.0"
	},
	"scene":0,
	"scenes":[
		{
			"name":"Scene",
			"nodes":[
				4,
				5
			]
		}
	],
	"nodes":[
		{
			"extras":{
				"nowater":1.0
			},
			"mesh":0,
			"name":"backsail",
			"rotation":[
				0.70710688829422,
				0,
				0,
				0.7071066498756409
			],
			"scale":[
				12.769205093383789,
				12.769203186035156,
				12.769203186035156
			],
			"translation":[
				0.0809439942240715,
				14.807143211364746,
				0.7108383774757385
			]
		},
		{
			"extras":{
				"nowater":1.0,
				"datastreamemitter":1.0
			},
			"mesh":1,
			"name":"flag",
			"translation":[
				-0.010812466964125633,
				18.876646041870117,
				0.6063777208328247
			]
		},
		{
			"extras":{
				"nowater":1.0
			},
			"mesh":2,
			"name":"sail",
			"rotation":[
				0.70710688829422,
				0,
				0,
				0.7071066498756409
			],
			"scale":[
				12.769205093383789,
				12.769203186035156,
				12.769203186035156
			],
			"translation":[
				0.0809439942240715,
				14.807143211364746,
				0.7108383774757385
			]
		},
		{
			"extras":{
				"nowater":1.0
			},
			"mesh":3,
			"name":"smallsail",
			"rotation":[
				0.70710688829422,
				0,
				0,
				0.7071066498756409
			],
			"scale":[
				12.769205093383789,
				12.769203186035156,
				12.769203186035156
			],
			"translation":[
				0.32698649168014526,
				13.214259147644043,
				-7.932239055633545
			]
		},
		{
			"children":[
				0,
				1,
				2,
				3
			],
			"mesh":4,
			"name":"boat"
		},
		{
			"extras":{
				"nowater":1.0
			},
			"mesh":5,
			"name":"boat.001"
		}
	],
	"animations":[
		{
			"channels":[
				{
					"sampler":0,
					"target":{
						"node":0,
						"path":"translation"
					}
				},
				{
					"sampler":1,
					"target":{
						"node":0,
						"path":"scale"
					}
				},
				{
					"sampler":2,
					"target":{
						"node":2,
						"path":"translation"
					}
				},
				{
					"sampler":3,
					"target":{
						"node":2,
						"path":"scale"
					}
				},
				{
					"sampler":4,
					"target":{
						"node":3,
						"path":"translation"
					}
				},
				{
					"sampler":5,
					"target":{
						"node":3,
						"path":"scale"
					}
				}
			],
			"name":"strongWind",
			"samplers":[
				{
					"input":24,
					"interpolation":"LINEAR",
					"output":25
				},
				{
					"input":24,
					"interpolation":"LINEAR",
					"output":26
				},
				{
					"input":24,
					"interpolation":"LINEAR",
					"output":27
				},
				{
					"input":24,
					"interpolation":"LINEAR",
					"output":28
				},
				{
					"input":24,
					"interpolation":"LINEAR",
					"output":29
				},
				{
					"input":24,
					"interpolation":"LINEAR",
					"output":30
				}
			]
		},
		{
			"channels":[
				{
					"sampler":0,
					"target":{
						"node":0,
						"path":"scale"
					}
				},
				{
					"sampler":1,
					"target":{
						"node":2,
						"path":"scale"
					}
				},
				{
					"sampler":2,
					"target":{
						"node":3,
						"path":"scale"
					}
				}
			],
			"name":"sailScale",
			"samplers":[
				{
					"input":24,
					"interpolation":"LINEAR",
					"output":31
				},
				{
					"input":24,
					"interpolation":"LINEAR",
					"output":32
				},
				{
					"input":24,
					"interpolation":"LINEAR",
					"output":33
				}
			]
		},
		{
			"channels":[
				{
					"sampler":0,
					"target":{
						"node":1,
						"path":"rotation"
					}
				}
			],
			"name":"rotateFlag",
			"samplers":[
				{
					"input":34,
					"interpolation":"LINEAR",
					"output":35
				}
			]
		},
		{
			"channels":[
				{
					"sampler":0,
					"target":{
						"node":1,
						"path":"scale"
					}
				}
			],
			"name":"foldFlag",
			"samplers":[
				{
					"input":36,
					"interpolation":"LINEAR",
					"output":37
				}
			]
		}
	],
	"materials":[
		{
			"doubleSided":true,
			"name":"smallSail.001",
			"normalTexture":{
				"index":0
			},
			"pbrMetallicRoughness":{
				"baseColorTexture":{
					"index":1
				},
				"metallicRoughnessTexture":{
					"index":2
				}
			}
		},
		{
			"doubleSided":true,
			"name":"flag",
			"pbrMetallicRoughness":{
				"metallicFactor":0,
				"roughnessFactor":0.5
			}
		},
		{
			"doubleSided":true,
			"name":"sail.001",
			"normalTexture":{
				"index":3
			},
			"pbrMetallicRoughness":{
				"baseColorFactor":[
					0.800000011920929,
					0.800000011920929,
					0.800000011920929,
					1
				],
				"metallicRoughnessTexture":{
					"index":4
				}
			}
		},
		{
			"doubleSided":true,
			"name":"boat",
			"normalTexture":{
				"index":5
			},
			"pbrMetallicRoughness":{
				"baseColorTexture":{
					"index":6
				},
				"metallicRoughnessTexture":{
					"index":7
				}
			}
		}
	],
	"meshes":[
		{
			"name":"model.003",
			"primitives":[
				{
					"attributes":{
						"POSITION":0,
						"NORMAL":1,
						"TEXCOORD_0":2
					},
					"indices":3,
					"material":0
				}
			]
		},
		{
			"name":"model.005",
			"primitives":[
				{
					"attributes":{
						"POSITION":4,
						"NORMAL":5,
						"TEXCOORD_0":6
					},
					"indices":7,
					"material":1
				}
			]
		},
		{
			"name":"model.002",
			"primitives":[
				{
					"attributes":{
						"POSITION":8,
						"NORMAL":9,
						"TEXCOORD_0":10
					},
					"indices":11,
					"material":2
				}
			]
		},
		{
			"name":"model.004",
			"primitives":[
				{
					"attributes":{
						"POSITION":12,
						"NORMAL":13,
						"TEXCOORD_0":14
					},
					"indices":15,
					"material":0
				}
			]
		},
		{
			"name":"model",
			"primitives":[
				{
					"attributes":{
						"POSITION":16,
						"NORMAL":17,
						"TEXCOORD_0":18
					},
					"indices":19,
					"material":3
				}
			]
		},
		{
			"name":"model.001",
			"primitives":[
				{
					"attributes":{
						"POSITION":20,
						"NORMAL":21,
						"TEXCOORD_0":22
					},
					"indices":23,
					"material":3
				}
			]
		}
	],
	"textures":[
		{
			"sampler":0,
			"source":0
		},
		{
			"sampler":0,
			"source":1
		},
		{
			"sampler":0,
			"source":2
		},
		{
			"sampler":0,
			"source":3
		},
		{
			"sampler":0,
			"source":4
		},
		{
			"sampler":0,
			"source":5
		},
		{
			"sampler":0,
			"source":6
		},
		{
			"sampler":0,
			"source":7
		}
	],
	"images":[
		{
			"mimeType":"image/jpeg",
			"name":"smallSail_Normal",
			"uri":"smallSail_Normal.jpg"
		},
		{
			"mimeType":"image/jpeg",
			"name":"smallSail_BaseColor",
			"uri":"smallSail_BaseColor.jpg"
		},
		{
			"mimeType":"image/jpeg",
			"name":"smallSail_Metallic-smallSail_Roughness",
			"uri":"smallSail_Metallic-smallSail_Roughness.jpg"
		},
		{
			"mimeType":"image/jpeg",
			"name":"flag_Normal",
			"uri":"flag_Normal.jpg"
		},
		{
			"mimeType":"image/jpeg",
			"name":"sail_Metallic-flag_Roughness",
			"uri":"sail_Metallic-flag_Roughness.jpg"
		},
		{
			"mimeType":"image/jpeg",
			"name":"boat_Normal",
			"uri":"boat_Normal.jpg"
		},
		{
			"mimeType":"image/jpeg",
			"name":"boat_BaseColor",
			"uri":"boat_BaseColor.jpg"
		},
		{
			"mimeType":"image/jpeg",
			"name":"boat_Metallic-boat_Roughness",
			"uri":"boat_Metallic-boat_Roughness.jpg"
		}
	],
	"accessors":[
		{
			"bufferView":0,
			"componentType":5126,
			"count":1475,
			"max":[
				0.4761839807033539,
				0.08726698905229568,
				0.6853569746017456
			],
			"min":[
				-0.48833000659942627,
				-0.07240799814462662,
				-0.0044519901275634766
			],
			"type":"VEC3"
		},
		{
			"bufferView":1,
			"componentType":5126,
			"count":1475,
			"type":"VEC3"
		},
		{
			"bufferView":2,
			"componentType":5126,
			"count":1475,
			"type":"VEC2"
		},
		{
			"bufferView":3,
			"componentType":5123,
			"count":7020,
			"type":"SCALAR"
		},
		{
			"bufferView":4,
			"componentType":5126,
			"count":485,
			"max":[
				0.14599886536598206,
				3.1221134662628174,
				0.025818603113293648
			],
			"min":[
				-0.04968224838376045,
				1.280271053314209,
				-4.837421417236328
			],
			"type":"VEC3"
		},
		{
			"bufferView":5,
			"componentType":5126,
			"count":485,
			"type":"VEC3"
		},
		{
			"bufferView":6,
			"componentType":5126,
			"count":485,
			"type":"VEC2"
		},
		{
			"bufferView":7,
			"componentType":5123,
			"count":1839,
			"type":"SCALAR"
		},
		{
			"bufferView":8,
			"componentType":5126,
			"count":1439,
			"max":[
				0.4760119915008545,
				0.1732734739780426,
				0.6853569746017456
			],
			"min":[
				-0.48771700263023376,
				-0.07107999920845032,
				-0.007086038589477539
			],
			"type":"VEC3"
		},
		{
			"bufferView":9,
			"componentType":5126,
			"count":1439,
			"type":"VEC3"
		},
		{
			"bufferView":10,
			"componentType":5126,
			"count":1439,
			"type":"VEC2"
		},
		{
			"bufferView":11,
			"componentType":5123,
			"count":7170,
			"type":"SCALAR"
		},
		{
			"bufferView":12,
			"componentType":5126,
			"count":2015,
			"max":[
				0.3170715570449829,
				0.10104984045028687,
				0.4361061453819275
			],
			"min":[
				-0.3657395541667938,
				-0.042783141136169434,
				-0.0035309791564941406
			],
			"type":"VEC3"
		},
		{
			"bufferView":13,
			"componentType":5126,
			"count":2015,
			"type":"VEC3"
		},
		{
			"bufferView":14,
			"componentType":5126,
			"count":2015,
			"type":"VEC2"
		},
		{
			"bufferView":15,
			"componentType":5123,
			"count":8283,
			"type":"SCALAR"
		},
		{
			"bufferView":16,
			"componentType":5126,
			"count":5587,
			"max":[
				3.8623695373535156,
				2.3775951862335205,
				9.405972480773926
			],
			"min":[
				-3.9724488258361816,
				-2.0286471843719482,
				-11.700716018676758
			],
			"type":"VEC3"
		},
		{
			"bufferView":17,
			"componentType":5126,
			"count":5587,
			"type":"VEC3"
		},
		{
			"bufferView":18,
			"componentType":5126,
			"count":5587,
			"type":"VEC2"
		},
		{
			"bufferView":19,
			"componentType":5123,
			"count":17874,
			"type":"SCALAR"
		},
		{
			"bufferView":20,
			"componentType":5126,
			"count":27341,
			"max":[
				6.852619647979736,
				22.21444320678711,
				11.846222877502441
			],
			"min":[
				-6.84938907623291,
				1.5539191961288452,
				-11.805512428283691
			],
			"type":"VEC3"
		},
		{
			"bufferView":21,
			"componentType":5126,
			"count":27341,
			"type":"VEC3"
		},
		{
			"bufferView":22,
			"componentType":5126,
			"count":27341,
			"type":"VEC2"
		},
		{
			"bufferView":23,
			"componentType":5123,
			"count":80715,
			"type":"SCALAR"
		},
		{
			"bufferView":24,
			"componentType":5126,
			"count":10,
			"max":[
				0.4166666666666667
			],
			"min":[
				0.041666666666666664
			],
			"type":"SCALAR"
		},
		{
			"bufferView":25,
			"componentType":5126,
			"count":10,
			"type":"VEC3"
		},
		{
			"bufferView":26,
			"componentType":5126,
			"count":10,
			"type":"VEC3"
		},
		{
			"bufferView":27,
			"componentType":5126,
			"count":10,
			"type":"VEC3"
		},
		{
			"bufferView":28,
			"componentType":5126,
			"count":10,
			"type":"VEC3"
		},
		{
			"bufferView":29,
			"componentType":5126,
			"count":10,
			"type":"VEC3"
		},
		{
			"bufferView":30,
			"componentType":5126,
			"count":10,
			"type":"VEC3"
		},
		{
			"bufferView":31,
			"componentType":5126,
			"count":10,
			"type":"VEC3"
		},
		{
			"bufferView":32,
			"componentType":5126,
			"count":10,
			"type":"VEC3"
		},
		{
			"bufferView":33,
			"componentType":5126,
			"count":10,
			"type":"VEC3"
		},
		{
			"bufferView":34,
			"componentType":5126,
			"count":9,
			"max":[
				0.375
			],
			"min":[
				0.041666666666666664
			],
			"type":"SCALAR"
		},
		{
			"bufferView":35,
			"componentType":5126,
			"count":9,
			"type":"VEC4"
		},
		{
			"bufferView":36,
			"componentType":5126,
			"count":16,
			"max":[
				0.6666666666666666
			],
			"min":[
				0.041666666666666664
			],
			"type":"SCALAR"
		},
		{
			"bufferView":37,
			"componentType":5126,
			"count":16,
			"type":"VEC3"
		}
	],
	"bufferViews":[
		{
			"buffer":0,
			"byteLength":17700,
			"byteOffset":0,
			"target":34962
		},
		{
			"buffer":0,
			"byteLength":17700,
			"byteOffset":17700,
			"target":34962
		},
		{
			"buffer":0,
			"byteLength":11800,
			"byteOffset":35400,
			"target":34962
		},
		{
			"buffer":0,
			"byteLength":14040,
			"byteOffset":47200,
			"target":34963
		},
		{
			"buffer":0,
			"byteLength":5820,
			"byteOffset":61240,
			"target":34962
		},
		{
			"buffer":0,
			"byteLength":5820,
			"byteOffset":67060,
			"target":34962
		},
		{
			"buffer":0,
			"byteLength":3880,
			"byteOffset":72880,
			"target":34962
		},
		{
			"buffer":0,
			"byteLength":3678,
			"byteOffset":76760,
			"target":34963
		},
		{
			"buffer":0,
			"byteLength":17268,
			"byteOffset":80440,
			"target":34962
		},
		{
			"buffer":0,
			"byteLength":17268,
			"byteOffset":97708,
			"target":34962
		},
		{
			"buffer":0,
			"byteLength":11512,
			"byteOffset":114976,
			"target":34962
		},
		{
			"buffer":0,
			"byteLength":14340,
			"byteOffset":126488,
			"target":34963
		},
		{
			"buffer":0,
			"byteLength":24180,
			"byteOffset":140828,
			"target":34962
		},
		{
			"buffer":0,
			"byteLength":24180,
			"byteOffset":165008,
			"target":34962
		},
		{
			"buffer":0,
			"byteLength":16120,
			"byteOffset":189188,
			"target":34962
		},
		{
			"buffer":0,
			"byteLength":16566,
			"byteOffset":205308,
			"target":34963
		},
		{
			"buffer":0,
			"byteLength":67044,
			"byteOffset":221876,
			"target":34962
		},
		{
			"buffer":0,
			"byteLength":67044,
			"byteOffset":288920,
			"target":34962
		},
		{
			"buffer":0,
			"byteLength":44696,
			"byteOffset":355964,
			"target":34962
		},
		{
			"buffer":0,
			"byteLength":35748,
			"byteOffset":400660,
			"target":34963
		},
		{
			"buffer":0,
			"byteLength":328092,
			"byteOffset":436408,
			"target":34962
		},
		{
			"buffer":0,
			"byteLength":328092,
			"byteOffset":764500,
			"target":34962
		},
		{
			"buffer":0,
			"byteLength":218728,
			"byteOffset":1092592,
			"target":34962
		},
		{
			"buffer":0,
			"byteLength":161430,
			"byteOffset":1311320,
			"target":34963
		},
		{
			"buffer":0,
			"byteLength":40,
			"byteOffset":1472752
		},
		{
			"buffer":0,
			"byteLength":120,
			"byteOffset":1472792
		},
		{
			"buffer":0,
			"byteLength":120,
			"byteOffset":1472912
		},
		{
			"buffer":0,
			"byteLength":120,
			"byteOffset":1473032
		},
		{
			"buffer":0,
			"byteLength":120,
			"byteOffset":1473152
		},
		{
			"buffer":0,
			"byteLength":120,
			"byteOffset":1473272
		},
		{
			"buffer":0,
			"byteLength":120,
			"byteOffset":1473392
		},
		{
			"buffer":0,
			"byteLength":120,
			"byteOffset":1473512
		},
		{
			"buffer":0,
			"byteLength":120,
			"byteOffset":1473632
		},
		{
			"buffer":0,
			"byteLength":120,
			"byteOffset":1473752
		},
		{
			"buffer":0,
			"byteLength":36,
			"byteOffset":1473872
		},
		{
			"buffer":0,
			"byteLength":144,
			"byteOffset":1473908
		},
		{
			"buffer":0,
			"byteLength":64,
			"byteOffset":1474052
		},
		{
			"buffer":0,
			"byteLength":192,
			"byteOffset":1474116
		}
	],
	"samplers":[
		{
			"magFilter":9729,
			"minFilter":9987
		}
	],
	"buffers":[
		{
			"byteLength":1474308,
			"uri":"boat.bin"
		}
	]
}
